<svg width="147" height="147" viewBox="0 0 147 147" fill="none" xmlns="http://www.w3.org/2000/svg">
<path d="M66.5816 106.146L68.4988 110.83L87.8657 127.557L98.5664 117.271L124.056 139.287L144.01 120.082L139.12 108.039L99.8576 74.1181L145.458 30.2428L140.567 18.181L121.181 1.45459L80.3341 40.7627L78.4366 36.0981L59.0501 19.3521L48.3493 29.6573L22.8593 7.62211L2.90552 26.8273L7.81572 38.8695L47.0582 72.7909L1.45789 116.686L6.34853 128.728L25.735 145.454L66.5816 106.146Z" fill="black"/>
<path d="M20.8247 133.412L140.567 18.1813" stroke="white" stroke-width="1.5" stroke-linecap="round" stroke-linejoin="round"/>
<path d="M2.90564 26.8271L119.166 127.244" stroke="white" stroke-width="1.5" stroke-linecap="round" stroke-linejoin="round"/>
<path d="M58.4827 55.2836L87.8656 127.557" stroke="white" stroke-width="1.5" stroke-linecap="round" stroke-linejoin="round"/>
<path d="M25.7352 145.454L75.6197 97.4413" stroke="white" stroke-width="1.5" stroke-linecap="round" stroke-linejoin="round"/>
<path d="M51.3424 68.6728L1.45789 116.686" stroke="white" stroke-width="1.5" stroke-linecap="round" stroke-linejoin="round"/>
<path d="M75.6196 97.4413L124.057 139.287" stroke="white" stroke-width="1.5" stroke-linecap="round" stroke-linejoin="round"/>
<path d="M139.119 108.039L90.6826 66.1938" stroke="white" stroke-width="1.5" stroke-linecap="round" stroke-linejoin="round"/>
<path d="M99.8574 74.118L145.458 30.2427" stroke="white" stroke-width="1.5" stroke-linecap="round" stroke-linejoin="round"/>
<path d="M47.0582 72.7911L1.45789 116.686" stroke="white" stroke-width="1.5" stroke-linecap="round" stroke-linejoin="round"/>
<path d="M25.7352 145.454L66.5819 106.146" stroke="white" stroke-width="1.5" stroke-linecap="round" stroke-linejoin="round"/>
<path d="M121.181 1.45459L80.334 40.7627" stroke="white" stroke-width="1.5" stroke-linecap="round" stroke-linejoin="round"/>
<path d="M7.81567 38.8694L47.0582 72.7908" stroke="white" stroke-width="1.5" stroke-linecap="round" stroke-linejoin="round"/>
<path d="M139.119 108.039L99.8574 74.1178" stroke="white" stroke-width="1.5" stroke-linecap="round" stroke-linejoin="round"/>
<path d="M48.3494 29.6572L22.8594 7.62195" stroke="white" stroke-width="1.5" stroke-linecap="round" stroke-linejoin="round"/>
<path d="M98.5665 117.271L124.057 139.287" stroke="white" stroke-width="1.5" stroke-linecap="round" stroke-linejoin="round"/>
<path d="M78.4366 36.0981L90.6828 66.194" stroke="white" stroke-width="1.5" stroke-linecap="round" stroke-linejoin="round"/>
<path d="M39.0963 38.5574L51.3425 68.6729" stroke="white" stroke-width="1.5" stroke-linecap="round" stroke-linejoin="round"/>
<path d="M124.056 139.287L144.01 120.082" stroke="white" stroke-width="1.5" stroke-linecap="round" stroke-linejoin="round"/>
<path d="M59.0501 19.3522L39.0963 38.5574" stroke="white" stroke-width="1.5" stroke-linecap="round" stroke-linejoin="round"/>
<path d="M139.119 108.039L119.166 127.245" stroke="white" stroke-width="1.5" stroke-linecap="round" stroke-linejoin="round"/>
<path d="M2.90564 26.8271L22.8594 7.62195" stroke="white" stroke-width="1.5" stroke-linecap="round" stroke-linejoin="round"/>
<path d="M58.4827 55.2837L78.4365 36.0981" stroke="white" stroke-width="1.5" stroke-linecap="round" stroke-linejoin="round"/>
<path d="M87.8656 127.557L68.4987 110.831" stroke="white" stroke-width="1.5" stroke-linecap="round" stroke-linejoin="round"/>
<path d="M78.4364 36.0982L59.0499 19.3522" stroke="white" stroke-width="1.5" stroke-linecap="round" stroke-linejoin="round"/>
<path d="M121.181 1.45459L140.567 18.181" stroke="white" stroke-width="1.5" stroke-linecap="round" stroke-linejoin="round"/>
<path d="M39.0963 38.5574L58.4828 55.2839" stroke="white" stroke-width="1.5" stroke-linecap="round" stroke-linejoin="round"/>
<path d="M20.8248 133.412L1.45789 116.686" stroke="white" stroke-width="1.5" stroke-linecap="round" stroke-linejoin="round"/>
<path d="M6.34851 128.728L25.735 145.455" stroke="white" stroke-width="1.5" stroke-linecap="round" stroke-linejoin="round"/>
<path d="M59.0502 19.3522L48.3495 29.6574" stroke="white" stroke-width="1.5" stroke-linecap="round" stroke-linejoin="round"/>
<path d="M98.5663 117.271L87.8656 127.557" stroke="white" stroke-width="1.5" stroke-linecap="round" stroke-linejoin="round"/>
<path d="M144.01 120.082L139.12 108.039" stroke="white" stroke-width="1.5" stroke-linecap="round" stroke-linejoin="round"/>
<path d="M25.7349 145.454L20.8247 133.412" stroke="white" stroke-width="1.5" stroke-linecap="round" stroke-linejoin="round"/>
<path d="M1.45789 116.686L6.34852 128.728" stroke="white" stroke-width="1.5" stroke-linecap="round" stroke-linejoin="round"/>
<path d="M140.567 18.1813L145.458 30.2431" stroke="white" stroke-width="1.5" stroke-linecap="round" stroke-linejoin="round"/>
<path d="M7.81584 38.8694L2.90564 26.8271" stroke="white" stroke-width="1.5" stroke-linecap="round" stroke-linejoin="round"/>
<path d="M119.166 127.245L124.056 139.287" stroke="white" stroke-width="1.5" stroke-linecap="round" stroke-linejoin="round"/>
<path d="M78.4366 36.0981L80.3342 40.7628" stroke="white" stroke-width="1.5" stroke-linecap="round" stroke-linejoin="round"/>
<path d="M66.5818 106.146L68.4989 110.83" stroke="white" stroke-width="1.5" stroke-linecap="round" stroke-linejoin="round"/>
</svg>
